<?xml version="1.0" encoding="UTF-8"?>
<svg id="Layer_1" xmlns="http://www.w3.org/2000/svg" version="1.1" viewBox="0 0 768 1344">
  <!-- Generator: Adobe Illustrator 30.0.0, SVG Export Plug-In . SVG Version: 2.1.1 Build 123)  -->
  <defs>
    <style>
      .st0 {
        fill: #fff;
      }
    </style>
  </defs>
  <path class="st0" d="M768,0v1344H0V0h768ZM385,311.02c4.97-1.48,9.33-4.38,14.03-6.48,5.39-2.41,39.4-14.03,39.9-16.13-2.33-5.72-13.16-18.72-19.4-18.49l-49.93,22.01-24.12-47.9c-1.68-2.1-4.65-3.27-7.24-2.38-30.87,14.82-63.19,25.84-95.18,37.9l-1.84,3.17,9.34,67.27c-1.14,2.34-39.6,19.93-45.02,22.03-3.69,1.43-16.59,3.83-17.39,6.69-.86,3.09,8.24,17.39,10.56,18.11,3.69,1.15,12.5-3.5,16.33-5.3,5.13-2.41,40.59-22.76,42.97-20.52-5,10.82-11.01,21.16-15.03,32.46-7.64,21.45-11.42,44.32-12.01,66.99-.68,26.16,8.06,61.21-7.55,83.45-2.1,3-6.94,4.78-4.92,9.07,2.9,6.19,23.51,11.31,30.04,11.06,9.39-.35,14.31-4.83,22.22-7.81,15.3-5.77,33.1-6.48,49.28-7.73l-19.47,106.53c-12.75,3.82-27.44,3.21-38.46,11.54-8.11,6.14-15.59,18.2-5,25.83l9.91,3.07c-24.26,17.79-49.47,38.96-69.51,61.5-61.55,69.22-65.29,184.93-2.51,254.54,20.78,23.04,55.2,52.83,83.35,65.65,80.64,36.7,174.67,45.75,250.39-6.95,62.82-43.73,92.28-76.35,103.15-154.85,8.91-64.34-.71-98.96-36.04-151.7-32-47.76-51.46-80.03-110.62-96.38-12.07-3.34-26.23-4.68-37.67-8.33-1.04-.33-1.86-.33-2.53-1.45l40.81-55.18c8.98-12.95-4.11-25.16-11.85-34.8-4.42-5.5-11.14-11.41-15.03-16.99-.73-1.04-1.28-1.12-.51-2.55s23.96-15.95,27.26-17.79c17.44-9.71,14.7-3.59,30.81-4.13,8.71-.29,19.16-6.89,25.51-12.55,2.53-2.26,6.64-5.65,7.04-8.96-.3-3.12-15.98-12.56-19.52-15.58-19.4-16.61-37.72-57.29-47.7-81.3-5.52-13.26-8.63-28.37-14.95-41.05-17.38-34.9-44-52.89-80.42-63.59-1.45-.43-1.75.57-1.45-2.01Z"/>
  <path d="M385,311.02c-.29,2.59,0,1.59,1.45,2.01,36.43,10.7,63.04,28.7,80.42,63.59,6.32,12.68,9.43,27.79,14.95,41.05,9.98,24,28.3,64.68,47.7,81.3,3.54,3.03,19.22,12.47,19.52,15.58-.4,3.31-4.51,6.7-7.04,8.96-6.35,5.67-16.8,12.26-25.51,12.55-16.11.54-13.37-5.59-30.81,4.13-3.3,1.84-26.49,16.36-27.26,17.79s-.22,1.51.51,2.55c3.9,5.58,10.62,11.49,15.03,16.99,7.74,9.64,20.83,21.85,11.85,34.8l-40.81,55.18c.67,1.12,1.49,1.12,2.53,1.45,11.44,3.66,25.6,5,37.67,8.33,59.16,16.36,78.62,48.62,110.62,96.38,35.33,52.75,44.95,87.36,36.04,151.7-10.87,78.5-40.33,111.12-103.15,154.85-75.72,52.71-169.75,43.66-250.39,6.95-28.15-12.81-62.58-42.61-83.35-65.65-62.77-69.61-59.04-185.32,2.51-254.54,20.04-22.54,45.25-43.71,69.51-61.5l-9.91-3.07c-10.58-7.63-3.11-19.69,5-25.83,11.02-8.34,25.71-7.72,38.46-11.54l19.47-106.53c-16.17,1.25-33.97,1.96-49.28,7.73-7.91,2.98-12.83,7.46-22.22,7.81-6.53.24-27.14-4.87-30.04-11.06-2.01-4.3,2.82-6.08,4.92-9.07,15.61-22.24,6.87-57.29,7.55-83.45.59-22.67,4.36-45.55,12.01-66.99,4.02-11.3,10.03-21.64,15.03-32.46-2.37-2.24-37.83,18.11-42.97,20.52-3.83,1.8-12.64,6.45-16.33,5.3-2.32-.72-11.42-15.02-10.56-18.11.79-2.86,13.7-5.26,17.39-6.69,5.43-2.1,43.88-19.69,45.02-22.03l-9.34-67.27,1.84-3.17c32-12.06,64.32-23.09,95.18-37.9,2.6-.9,5.57.27,7.24,2.38l24.12,47.9,49.93-22.01c6.24-.24,17.07,12.76,19.4,18.49-.5,2.1-34.51,13.72-39.9,16.13-4.7,2.1-9.06,5-14.03,6.48ZM335.01,674c23.38-6.8,47.78-7.8,72.01-8.48l38.56-63.51-41.59-37.5c-6.79-.22-13.5,1.08-20.36.38-6.88-.7-14.54-3.63-21.08-5.87l-1.33,1.71c-9.12,37.68-19.42,75.06-26.21,113.28ZM618.99,863.99c-1.62-14.82-5.24-28.44-11.62-41.87-9.55-20.12-21.32-35.39-33.6-53.4-11.57-16.97-21.05-35.36-37.42-48.56-33.81,10.6-48.86,56.21-88.56,47.54-18.3-4-58.99-31.69-68.57-1.98-3.52,10.91,1.78,16.07,11.42,20.13,20.83,8.77,57.87,3.61,71.79,23.21,9.02,12.7,6.85,37.08,20.55,43.45,9.5,4.42,33,6.45,43.49,5.47,19.14-1.78,29.55-16.26,50.78-11.75,14.36,3.06,26.6,16.37,41.73,17.76ZM331.35,909.65c9.51,10.29,52.87,14.94,55.59-2.21,1.67-10.49-11.82-42.66-19.93-49.95-28.25-25.41-80.68-12.07-75.88-63.86,1.48-15.96,15.49-35.61-5.85-43.41-12.21-4.46-21.05-.02-32.77-1.23-4.64-.48-8.16-2.75-12.55-3.48-14.61,13.88-30.99,27.83-42.37,44.58-15.63,23-32.16,65.66-33.63,93.37-2.32,43.47,9.97,90.32,38.55,123.54,2.65-5.84,10.42-9.33,13.36-14.63,3.7-6.66.34-16.77,1.24-24.76s6.05-16.51,6.9-24.1c1.83-16.31-3.69-24.09,3.51-42.49,6.84-17.49,37.13-47.07,55.45-51.55,18.55-4.54,39.4,4.08,42.58,24.48,1.54,9.88-.93,28.43,5.8,35.7ZM608.93,962.09c-11.6-2.46-14.71-19.54-26.97-17.67-16.99,2.59-36.7,35.31-50.44,46.6-29.46,24.21-55.22-6-78.46,10.54-17.96,12.78-8.94,38.4-22.55,55.45-5.66,7.08-22.92,17.9-25.05,24.94-2.52,8.34,5.26,12.16,4.54,20.05,40.18.98,78.62-11.33,111.31-34.18,14.06-9.83,31.5-23.34,44.16-34.84,20.96-19.03,36.92-43,43.45-70.88Z"/>
  <path class="st0" d="M331.35,909.65c-6.73-7.28-4.26-25.83-5.8-35.7-3.18-20.4-24.03-29.02-42.58-24.48-18.32,4.49-48.61,34.07-55.45,51.55-7.2,18.4-1.68,26.17-3.51,42.49-.85,7.59-6.01,16.2-6.9,24.1s2.46,18.1-1.24,24.76c-2.94,5.29-10.71,8.79-13.36,14.63-28.58-33.22-40.86-80.06-38.55-123.54,1.48-27.71,18-70.37,33.63-93.37,11.38-16.75,27.76-30.71,42.37-44.58,4.39.73,7.91,3,12.55,3.48,11.71,1.21,20.55-3.23,32.77,1.23,21.34,7.8,7.33,27.44,5.85,43.41-4.8,51.79,47.63,38.45,75.88,63.86,8.11,7.29,21.6,39.47,19.93,49.95-2.73,17.15-46.08,12.49-55.59,2.21Z"/>
  <path class="st0" d="M618.99,863.99c-15.13-1.39-27.38-14.7-41.73-17.76-21.22-4.52-31.64,9.96-50.78,11.75-10.49.98-34-1.05-43.49-5.47-13.7-6.38-11.53-30.75-20.55-43.45-13.92-19.6-50.96-14.44-71.79-23.21-9.64-4.06-14.93-9.22-11.42-20.13,9.58-29.72,50.27-2.02,68.57,1.98,39.7,8.67,54.75-36.95,88.56-47.54,16.37,13.2,25.85,31.59,37.42,48.56,12.28,18.01,24.05,33.28,33.6,53.4,6.38,13.43,10,27.05,11.62,41.87Z"/>
  <path class="st0" d="M608.93,962.09c-6.54,27.88-22.49,51.85-43.45,70.88-12.66,11.5-30.1,25.01-44.16,34.84-32.69,22.86-71.13,35.17-111.31,34.18.72-7.88-7.07-11.7-4.54-20.05,2.13-7.04,19.4-17.86,25.05-24.94,13.61-17.05,4.59-42.66,22.55-55.45,23.24-16.54,49,13.67,78.46-10.54,13.73-11.29,33.44-44.01,50.44-46.6,12.26-1.87,15.37,15.21,26.97,17.67Z"/>
  <path class="st0" d="M335.01,674c6.78-38.22,17.09-75.6,26.21-113.28l1.33-1.71c6.55,2.24,14.2,5.17,21.08,5.87,6.85.69,13.56-.6,20.36-.38l41.59,37.5-38.56,63.51c-24.23.69-48.62,1.69-72.01,8.48Z"/>
</svg>